<mxfile host="Electron" modified="2023-11-28T17:47:32.355Z" agent="Mozilla/5.0 (Windows NT 10.0; Win64; x64) AppleWebKit/537.36 (KHTML, like Gecko) draw.io/22.1.2 Chrome/114.0.5735.289 Electron/25.9.4 Safari/537.36" etag="Dqiw9q7i5KljRtRO_HFb" version="22.1.2" type="device">
  <diagram name="Page-1" id="icmziCoGJ4KJlRF5kEWQ">
    <mxGraphModel dx="1863" dy="606" grid="1" gridSize="10" guides="1" tooltips="1" connect="1" arrows="1" fold="1" page="1" pageScale="1" pageWidth="827" pageHeight="1169" background="none" math="0" shadow="1">
      <root>
        <mxCell id="0" />
        <mxCell id="1" parent="0" />
        <mxCell id="VXtaSYt_-MFgEFt-7SgF-1" value="User" style="rounded=0;whiteSpace=wrap;html=1;strokeWidth=2;fontSize=31;fontStyle=1;fillColor=#dae8fc;strokeColor=#6c8ebf;" parent="1" vertex="1">
          <mxGeometry x="350" y="240" width="120" height="60" as="geometry" />
        </mxCell>
        <mxCell id="VXtaSYt_-MFgEFt-7SgF-2" value="Post" style="rounded=0;whiteSpace=wrap;html=1;strokeWidth=2;fontSize=33;fontStyle=1;fillColor=#dae8fc;strokeColor=#6c8ebf;" parent="1" vertex="1">
          <mxGeometry x="20" y="240" width="120" height="60" as="geometry" />
        </mxCell>
        <mxCell id="VXtaSYt_-MFgEFt-7SgF-3" value="Comment" style="rounded=0;whiteSpace=wrap;html=1;strokeWidth=2;fontSize=23;fontStyle=1;fillColor=#dae8fc;strokeColor=#6c8ebf;" parent="1" vertex="1">
          <mxGeometry x="20" y="70" width="120" height="60" as="geometry" />
        </mxCell>
        <mxCell id="VXtaSYt_-MFgEFt-7SgF-4" value="Reaction" style="rounded=0;whiteSpace=wrap;html=1;strokeWidth=2;fontSize=25;fontStyle=1;fillColor=#dae8fc;strokeColor=#6c8ebf;" parent="1" vertex="1">
          <mxGeometry x="20" y="400" width="120" height="60" as="geometry" />
        </mxCell>
        <mxCell id="VXtaSYt_-MFgEFt-7SgF-5" value="Review" style="rounded=0;whiteSpace=wrap;html=1;strokeWidth=2;fontSize=27;fontStyle=1;fillColor=#dae8fc;strokeColor=#6c8ebf;" parent="1" vertex="1">
          <mxGeometry x="680" y="240" width="120" height="60" as="geometry" />
        </mxCell>
        <mxCell id="VXtaSYt_-MFgEFt-7SgF-6" value="Reservation" style="rounded=0;whiteSpace=wrap;html=1;strokeWidth=2;fontSize=18;fontStyle=1;fillColor=#dae8fc;strokeColor=#6c8ebf;" parent="1" vertex="1">
          <mxGeometry x="350" y="400" width="120" height="60" as="geometry" />
        </mxCell>
        <mxCell id="3BG4GZ4Tt4R05Wu69i2b-1" value="Auth" style="rounded=0;whiteSpace=wrap;html=1;strokeWidth=2;fontSize=31;fontStyle=1;fillColor=#dae8fc;strokeColor=#6c8ebf;" parent="1" vertex="1">
          <mxGeometry x="350" y="70" width="120" height="60" as="geometry" />
        </mxCell>
        <mxCell id="3BG4GZ4Tt4R05Wu69i2b-2" value="" style="endArrow=classic;html=1;rounded=0;exitX=0.5;exitY=0;exitDx=0;exitDy=0;entryX=0.5;entryY=1;entryDx=0;entryDy=0;" parent="1" source="VXtaSYt_-MFgEFt-7SgF-2" target="VXtaSYt_-MFgEFt-7SgF-3" edge="1">
          <mxGeometry width="50" height="50" relative="1" as="geometry">
            <mxPoint x="310" y="300" as="sourcePoint" />
            <mxPoint x="360" y="250" as="targetPoint" />
          </mxGeometry>
        </mxCell>
        <mxCell id="3BG4GZ4Tt4R05Wu69i2b-3" value="" style="endArrow=classic;html=1;rounded=0;exitX=0.5;exitY=1;exitDx=0;exitDy=0;entryX=0.5;entryY=0;entryDx=0;entryDy=0;" parent="1" source="VXtaSYt_-MFgEFt-7SgF-2" target="VXtaSYt_-MFgEFt-7SgF-4" edge="1">
          <mxGeometry width="50" height="50" relative="1" as="geometry">
            <mxPoint x="90" y="250" as="sourcePoint" />
            <mxPoint x="90" y="140" as="targetPoint" />
          </mxGeometry>
        </mxCell>
        <mxCell id="3BG4GZ4Tt4R05Wu69i2b-4" value="" style="endArrow=classic;html=1;rounded=0;exitX=0.5;exitY=1;exitDx=0;exitDy=0;entryX=0.5;entryY=0;entryDx=0;entryDy=0;" parent="1" source="VXtaSYt_-MFgEFt-7SgF-1" target="VXtaSYt_-MFgEFt-7SgF-6" edge="1">
          <mxGeometry width="50" height="50" relative="1" as="geometry">
            <mxPoint x="90" y="310" as="sourcePoint" />
            <mxPoint x="90" y="410" as="targetPoint" />
          </mxGeometry>
        </mxCell>
        <mxCell id="3BG4GZ4Tt4R05Wu69i2b-5" value="" style="endArrow=classic;html=1;rounded=0;exitX=0.5;exitY=1;exitDx=0;exitDy=0;entryX=0.5;entryY=0;entryDx=0;entryDy=0;" parent="1" source="3BG4GZ4Tt4R05Wu69i2b-1" target="VXtaSYt_-MFgEFt-7SgF-1" edge="1">
          <mxGeometry width="50" height="50" relative="1" as="geometry">
            <mxPoint x="90" y="250" as="sourcePoint" />
            <mxPoint x="90" y="140" as="targetPoint" />
          </mxGeometry>
        </mxCell>
        <mxCell id="3BG4GZ4Tt4R05Wu69i2b-6" value="" style="endArrow=classic;html=1;rounded=0;exitX=1;exitY=0.5;exitDx=0;exitDy=0;entryX=0;entryY=0.5;entryDx=0;entryDy=0;" parent="1" source="VXtaSYt_-MFgEFt-7SgF-1" target="VXtaSYt_-MFgEFt-7SgF-5" edge="1">
          <mxGeometry width="50" height="50" relative="1" as="geometry">
            <mxPoint x="420" y="140" as="sourcePoint" />
            <mxPoint x="420" y="250" as="targetPoint" />
          </mxGeometry>
        </mxCell>
        <mxCell id="3BG4GZ4Tt4R05Wu69i2b-7" value="" style="endArrow=classic;html=1;rounded=0;exitX=0;exitY=0.5;exitDx=0;exitDy=0;entryX=1;entryY=0.5;entryDx=0;entryDy=0;" parent="1" source="VXtaSYt_-MFgEFt-7SgF-1" target="VXtaSYt_-MFgEFt-7SgF-2" edge="1">
          <mxGeometry width="50" height="50" relative="1" as="geometry">
            <mxPoint x="90" y="310" as="sourcePoint" />
            <mxPoint x="90" y="410" as="targetPoint" />
          </mxGeometry>
        </mxCell>
        <mxCell id="3BG4GZ4Tt4R05Wu69i2b-8" value="" style="endArrow=classic;html=1;rounded=0;exitX=0;exitY=0;exitDx=0;exitDy=0;entryX=1;entryY=0.5;entryDx=0;entryDy=0;" parent="1" source="VXtaSYt_-MFgEFt-7SgF-1" target="VXtaSYt_-MFgEFt-7SgF-3" edge="1">
          <mxGeometry width="50" height="50" relative="1" as="geometry">
            <mxPoint x="360" y="280" as="sourcePoint" />
            <mxPoint x="150" y="280" as="targetPoint" />
          </mxGeometry>
        </mxCell>
        <mxCell id="3BG4GZ4Tt4R05Wu69i2b-9" value="" style="endArrow=classic;html=1;rounded=0;exitX=0;exitY=1;exitDx=0;exitDy=0;entryX=1;entryY=0.25;entryDx=0;entryDy=0;" parent="1" source="VXtaSYt_-MFgEFt-7SgF-1" target="VXtaSYt_-MFgEFt-7SgF-4" edge="1">
          <mxGeometry width="50" height="50" relative="1" as="geometry">
            <mxPoint x="360" y="280" as="sourcePoint" />
            <mxPoint x="150" y="280" as="targetPoint" />
          </mxGeometry>
        </mxCell>
        <mxCell id="3BG4GZ4Tt4R05Wu69i2b-10" value="Parent Refrencing" style="text;html=1;align=center;verticalAlign=middle;whiteSpace=wrap;rounded=0;fontSize=13;fontStyle=1;fillColor=#e1d5e7;strokeColor=#9673a6;" parent="1" vertex="1">
          <mxGeometry x="520" y="240" width="120" height="20" as="geometry" />
        </mxCell>
        <mxCell id="3BG4GZ4Tt4R05Wu69i2b-13" value="Parent" style="text;html=1;strokeColor=none;fillColor=none;align=center;verticalAlign=middle;whiteSpace=wrap;rounded=0;" parent="1" vertex="1">
          <mxGeometry x="710" y="412.5" width="60" height="30" as="geometry" />
        </mxCell>
        <mxCell id="3BG4GZ4Tt4R05Wu69i2b-14" value="Child" style="text;html=1;strokeColor=none;fillColor=none;align=center;verticalAlign=middle;whiteSpace=wrap;rounded=0;" parent="1" vertex="1">
          <mxGeometry x="710" y="462.5" width="60" height="25" as="geometry" />
        </mxCell>
        <mxCell id="3BG4GZ4Tt4R05Wu69i2b-16" value="P" style="ellipse;whiteSpace=wrap;html=1;aspect=fixed;fillColor=#fff2cc;strokeColor=#d6b656;" parent="1" vertex="1">
          <mxGeometry x="700" y="417.5" width="20" height="20" as="geometry" />
        </mxCell>
        <mxCell id="3BG4GZ4Tt4R05Wu69i2b-17" value="C" style="ellipse;whiteSpace=wrap;html=1;aspect=fixed;fillColor=#fff2cc;strokeColor=#d6b656;" parent="1" vertex="1">
          <mxGeometry x="700" y="465" width="20" height="20" as="geometry" />
        </mxCell>
        <mxCell id="3BG4GZ4Tt4R05Wu69i2b-18" value="P" style="ellipse;whiteSpace=wrap;html=1;aspect=fixed;fillColor=#fff2cc;strokeColor=#d6b656;" parent="1" vertex="1">
          <mxGeometry x="480" y="240" width="20" height="20" as="geometry" />
        </mxCell>
        <mxCell id="3BG4GZ4Tt4R05Wu69i2b-19" value="P" style="ellipse;whiteSpace=wrap;html=1;aspect=fixed;fillColor=#fff2cc;strokeColor=#d6b656;" parent="1" vertex="1">
          <mxGeometry x="414" y="310" width="20" height="20" as="geometry" />
        </mxCell>
        <mxCell id="3BG4GZ4Tt4R05Wu69i2b-20" value="C" style="ellipse;whiteSpace=wrap;html=1;aspect=fixed;fillColor=#fff2cc;strokeColor=#d6b656;" parent="1" vertex="1">
          <mxGeometry x="650" y="240" width="20" height="20" as="geometry" />
        </mxCell>
        <mxCell id="3BG4GZ4Tt4R05Wu69i2b-21" value="C" style="ellipse;whiteSpace=wrap;html=1;aspect=fixed;fillColor=#fff2cc;strokeColor=#d6b656;" parent="1" vertex="1">
          <mxGeometry x="414" y="370" width="20" height="20" as="geometry" />
        </mxCell>
        <mxCell id="3BG4GZ4Tt4R05Wu69i2b-23" value="P" style="ellipse;whiteSpace=wrap;html=1;aspect=fixed;fillColor=#fff2cc;strokeColor=#d6b656;" parent="1" vertex="1">
          <mxGeometry x="320" y="240" width="20" height="20" as="geometry" />
        </mxCell>
        <mxCell id="3BG4GZ4Tt4R05Wu69i2b-24" value="C" style="ellipse;whiteSpace=wrap;html=1;aspect=fixed;fillColor=#fff2cc;strokeColor=#d6b656;" parent="1" vertex="1">
          <mxGeometry x="140" y="240" width="20" height="20" as="geometry" />
        </mxCell>
        <mxCell id="3BG4GZ4Tt4R05Wu69i2b-25" value="P" style="ellipse;whiteSpace=wrap;html=1;aspect=fixed;fillColor=#fff2cc;strokeColor=#d6b656;" parent="1" vertex="1">
          <mxGeometry x="350" y="210" width="20" height="20" as="geometry" />
        </mxCell>
        <mxCell id="3BG4GZ4Tt4R05Wu69i2b-27" value="C" style="ellipse;whiteSpace=wrap;html=1;aspect=fixed;fillColor=#fff2cc;strokeColor=#d6b656;" parent="1" vertex="1">
          <mxGeometry x="150" y="80" width="20" height="20" as="geometry" />
        </mxCell>
        <mxCell id="3BG4GZ4Tt4R05Wu69i2b-29" value="1" style="text;html=1;strokeColor=#82b366;fillColor=#d5e8d4;align=center;verticalAlign=middle;whiteSpace=wrap;rounded=0;fontStyle=1" parent="1" vertex="1">
          <mxGeometry x="40" y="210" width="20" height="20" as="geometry" />
        </mxCell>
        <mxCell id="3BG4GZ4Tt4R05Wu69i2b-30" value="Many" style="text;html=1;strokeColor=#82b366;fillColor=#d5e8d4;align=center;verticalAlign=middle;whiteSpace=wrap;rounded=0;fontStyle=1" parent="1" vertex="1">
          <mxGeometry x="30" y="140" width="40" height="20" as="geometry" />
        </mxCell>
        <mxCell id="3BG4GZ4Tt4R05Wu69i2b-31" value="1" style="text;html=1;strokeColor=#82b366;fillColor=#d5e8d4;align=center;verticalAlign=middle;whiteSpace=wrap;rounded=0;fontStyle=1" parent="1" vertex="1">
          <mxGeometry x="40" y="310" width="20" height="20" as="geometry" />
        </mxCell>
        <mxCell id="3BG4GZ4Tt4R05Wu69i2b-32" value="Many" style="text;html=1;strokeColor=#82b366;fillColor=#d5e8d4;align=center;verticalAlign=middle;whiteSpace=wrap;rounded=0;fontStyle=1" parent="1" vertex="1">
          <mxGeometry x="30" y="370" width="40" height="20" as="geometry" />
        </mxCell>
        <mxCell id="3BG4GZ4Tt4R05Wu69i2b-33" value="1" style="text;html=1;strokeColor=#82b366;fillColor=#d5e8d4;align=center;verticalAlign=middle;whiteSpace=wrap;rounded=0;fontStyle=1" parent="1" vertex="1">
          <mxGeometry x="290" y="240" width="20" height="20" as="geometry" />
        </mxCell>
        <mxCell id="3BG4GZ4Tt4R05Wu69i2b-34" value="Many" style="text;html=1;strokeColor=#82b366;fillColor=#d5e8d4;align=center;verticalAlign=middle;whiteSpace=wrap;rounded=0;fontStyle=1" parent="1" vertex="1">
          <mxGeometry x="170" y="240" width="40" height="20" as="geometry" />
        </mxCell>
        <mxCell id="3BG4GZ4Tt4R05Wu69i2b-35" value="1" style="text;html=1;strokeColor=#82b366;fillColor=#d5e8d4;align=center;verticalAlign=middle;whiteSpace=wrap;rounded=0;fontStyle=1" parent="1" vertex="1">
          <mxGeometry x="310" y="290" width="20" height="20" as="geometry" />
        </mxCell>
        <mxCell id="3BG4GZ4Tt4R05Wu69i2b-36" value="1" style="text;html=1;strokeColor=#82b366;fillColor=#d5e8d4;align=center;verticalAlign=middle;whiteSpace=wrap;rounded=0;fontStyle=1" parent="1" vertex="1">
          <mxGeometry x="150" y="412.5" width="20" height="20" as="geometry" />
        </mxCell>
        <mxCell id="3BG4GZ4Tt4R05Wu69i2b-37" value="1" style="text;html=1;strokeColor=#82b366;fillColor=#d5e8d4;align=center;verticalAlign=middle;whiteSpace=wrap;rounded=0;fontStyle=1" parent="1" vertex="1">
          <mxGeometry x="380" y="310" width="20" height="20" as="geometry" />
        </mxCell>
        <mxCell id="3BG4GZ4Tt4R05Wu69i2b-38" value="1" style="text;html=1;strokeColor=#82b366;fillColor=#d5e8d4;align=center;verticalAlign=middle;whiteSpace=wrap;rounded=0;fontStyle=1" parent="1" vertex="1">
          <mxGeometry x="380" y="370" width="20" height="20" as="geometry" />
        </mxCell>
        <mxCell id="3BG4GZ4Tt4R05Wu69i2b-39" value="1" style="text;html=1;strokeColor=#82b366;fillColor=#d5e8d4;align=center;verticalAlign=middle;whiteSpace=wrap;rounded=0;fontStyle=1" parent="1" vertex="1">
          <mxGeometry x="480" y="280" width="20" height="20" as="geometry" />
        </mxCell>
        <mxCell id="3BG4GZ4Tt4R05Wu69i2b-40" value="Many" style="text;html=1;strokeColor=#82b366;fillColor=#d5e8d4;align=center;verticalAlign=middle;whiteSpace=wrap;rounded=0;fontStyle=1" parent="1" vertex="1">
          <mxGeometry x="630" y="280" width="40" height="20" as="geometry" />
        </mxCell>
        <mxCell id="3BG4GZ4Tt4R05Wu69i2b-41" value="1" style="text;html=1;strokeColor=#82b366;fillColor=#d5e8d4;align=center;verticalAlign=middle;whiteSpace=wrap;rounded=0;fontStyle=1" parent="1" vertex="1">
          <mxGeometry x="420" y="140" width="20" height="20" as="geometry" />
        </mxCell>
        <mxCell id="3BG4GZ4Tt4R05Wu69i2b-42" value="1" style="text;html=1;strokeColor=#82b366;fillColor=#d5e8d4;align=center;verticalAlign=middle;whiteSpace=wrap;rounded=0;fontStyle=1" parent="1" vertex="1">
          <mxGeometry x="420" y="210" width="20" height="20" as="geometry" />
        </mxCell>
        <mxCell id="3BG4GZ4Tt4R05Wu69i2b-43" value="1" style="text;html=1;strokeColor=#82b366;fillColor=#d5e8d4;align=center;verticalAlign=middle;whiteSpace=wrap;rounded=0;fontStyle=1" parent="1" vertex="1">
          <mxGeometry x="320" y="190" width="20" height="20" as="geometry" />
        </mxCell>
        <mxCell id="3BG4GZ4Tt4R05Wu69i2b-44" value="Many" style="text;html=1;strokeColor=#82b366;fillColor=#d5e8d4;align=center;verticalAlign=middle;whiteSpace=wrap;rounded=0;fontStyle=1" parent="1" vertex="1">
          <mxGeometry x="180" y="100" width="40" height="20" as="geometry" />
        </mxCell>
        <mxCell id="3BG4GZ4Tt4R05Wu69i2b-45" value="Embedding" style="text;html=1;strokeColor=#9673a6;fillColor=#e1d5e7;align=center;verticalAlign=middle;whiteSpace=wrap;rounded=0;fontStyle=1" parent="1" vertex="1">
          <mxGeometry x="90" y="180" width="70" height="20" as="geometry" />
        </mxCell>
        <mxCell id="3BG4GZ4Tt4R05Wu69i2b-47" value="Embedding" style="text;html=1;strokeColor=#9673a6;fillColor=#e1d5e7;align=center;verticalAlign=middle;whiteSpace=wrap;rounded=0;fontStyle=1" parent="1" vertex="1">
          <mxGeometry x="90" y="340" width="70" height="20" as="geometry" />
        </mxCell>
        <mxCell id="3BG4GZ4Tt4R05Wu69i2b-48" value="Refrencing" style="text;html=1;align=center;verticalAlign=middle;whiteSpace=wrap;rounded=0;fontSize=13;fontStyle=1;fillColor=#e1d5e7;strokeColor=#9673a6;rotation=35;" parent="1" vertex="1">
          <mxGeometry x="220" y="150" width="90" height="20" as="geometry" />
        </mxCell>
        <mxCell id="3BG4GZ4Tt4R05Wu69i2b-49" value="Refrencing" style="text;html=1;align=center;verticalAlign=middle;whiteSpace=wrap;rounded=0;fontSize=13;fontStyle=1;fillColor=#e1d5e7;strokeColor=#9673a6;rotation=-30;" parent="1" vertex="1">
          <mxGeometry x="220" y="360" width="90" height="20" as="geometry" />
        </mxCell>
        <mxCell id="3BG4GZ4Tt4R05Wu69i2b-50" value="Refrencing" style="text;html=1;align=center;verticalAlign=middle;whiteSpace=wrap;rounded=0;fontSize=13;fontStyle=1;fillColor=#e1d5e7;strokeColor=#9673a6;rotation=0;" parent="1" vertex="1">
          <mxGeometry x="190" y="280" width="90" height="20" as="geometry" />
        </mxCell>
        <mxCell id="3BG4GZ4Tt4R05Wu69i2b-51" value="&amp;lt;AuthID&amp;gt;" style="text;html=1;strokeColor=none;fillColor=none;align=center;verticalAlign=middle;whiteSpace=wrap;rounded=0;fontStyle=1" parent="1" vertex="1">
          <mxGeometry x="450" y="205" width="60" height="30" as="geometry" />
        </mxCell>
        <mxCell id="3BG4GZ4Tt4R05Wu69i2b-52" value="Mentee: &amp;lt;UserID&amp;gt;&lt;br&gt;Mentor: &amp;lt;UserID&amp;gt;" style="text;html=1;strokeColor=none;fillColor=none;align=center;verticalAlign=middle;whiteSpace=wrap;rounded=0;fontStyle=1" parent="1" vertex="1">
          <mxGeometry x="710" y="305" width="110" height="30" as="geometry" />
        </mxCell>
        <mxCell id="3BG4GZ4Tt4R05Wu69i2b-53" value="Mentee: &amp;lt;UserID&amp;gt;&lt;br&gt;Mentor: &amp;lt;UserID&amp;gt;" style="text;html=1;strokeColor=none;fillColor=none;align=center;verticalAlign=middle;whiteSpace=wrap;rounded=0;fontStyle=1" parent="1" vertex="1">
          <mxGeometry x="360" y="465" width="110" height="30" as="geometry" />
        </mxCell>
        <mxCell id="3BG4GZ4Tt4R05Wu69i2b-54" value="&amp;lt;UserID&amp;gt;&lt;br&gt;&amp;lt;PostID&amp;gt;" style="text;html=1;strokeColor=none;fillColor=none;align=center;verticalAlign=middle;whiteSpace=wrap;rounded=0;fontStyle=1" parent="1" vertex="1">
          <mxGeometry x="-50" y="417.5" width="60" height="30" as="geometry" />
        </mxCell>
        <mxCell id="3BG4GZ4Tt4R05Wu69i2b-55" value="&amp;lt;UserID&amp;gt;" style="text;html=1;strokeColor=none;fillColor=none;align=center;verticalAlign=middle;whiteSpace=wrap;rounded=0;fontStyle=1" parent="1" vertex="1">
          <mxGeometry x="-50" y="260" width="60" height="30" as="geometry" />
        </mxCell>
        <mxCell id="3BG4GZ4Tt4R05Wu69i2b-56" value="&amp;lt;UserID&amp;gt;&lt;br&gt;&amp;lt;PostID&amp;gt;" style="text;html=1;strokeColor=none;fillColor=none;align=center;verticalAlign=middle;whiteSpace=wrap;rounded=0;fontStyle=1" parent="1" vertex="1">
          <mxGeometry x="-50" y="85" width="60" height="30" as="geometry" />
        </mxCell>
      </root>
    </mxGraphModel>
  </diagram>
</mxfile>
